<svg width="62" height="62" viewBox="0 0 62 62" fill="none" xmlns="http://www.w3.org/2000/svg">
<path fill-rule="evenodd" clip-rule="evenodd" d="M38.4245 7.9143C38.228 7.52071 37.95 7.17345 37.609 6.89559C37.2679 6.61773 36.8716 6.41564 36.4465 6.30274C36.0213 6.18985 35.5769 6.16875 35.143 6.24083C34.709 6.31291 34.2954 6.47652 33.9295 6.7208C32.86 7.4338 32.0261 8.4506 31.3813 9.4488C30.7179 10.4718 30.132 11.6591 29.6143 12.9084C28.5789 15.4008 27.7109 18.3892 27.0103 21.3838C26.163 25.0433 25.5285 28.7489 25.11 32.4818C23.8487 31.6687 22.8353 30.5244 22.1805 29.1741C21.1637 27.0661 20.9467 24.4187 20.9467 20.9467C20.9466 20.3337 20.7647 19.7345 20.424 19.2248C20.0834 18.7151 19.5993 18.3179 19.0329 18.0833C18.4666 17.8487 17.8434 17.7873 17.2421 17.9069C16.6409 18.0265 16.0885 18.3216 15.655 18.755C13.6374 20.7683 12.0374 23.1602 10.9468 25.7936C9.85623 28.4269 9.29658 31.2498 9.3 34.1C9.30026 37.6685 10.1805 41.1818 11.8629 44.3288C13.5452 47.4758 15.9777 50.1594 18.9449 52.1418C21.912 54.1242 25.3223 55.3443 28.8736 55.694C32.4249 56.0437 36.0076 55.5122 39.3044 54.1465C42.6013 52.7809 45.5104 50.6233 47.7743 47.8649C50.0381 45.1064 51.5867 41.8322 52.283 38.3323C52.9792 34.8324 52.8016 31.2149 51.7658 27.8C50.7301 24.3851 48.8682 21.2784 46.345 18.755C44.5098 16.9229 43.307 15.7015 42.1662 14.2073C41.0409 12.7317 39.9218 10.912 38.4245 7.9143ZM37.572 46.872C36.2714 48.171 34.615 49.0554 32.8121 49.4136C31.0091 49.7717 29.1405 49.5876 27.4422 48.8844C25.7438 48.1811 24.2919 46.9904 23.2699 45.4625C22.2479 43.9347 21.7016 42.1382 21.7 40.3C21.7 40.3 24.4249 41.85 29.45 41.85C29.45 38.75 31 29.45 33.325 27.9C34.875 31 35.7616 31.9083 37.5751 33.7249C38.4401 34.5873 39.1262 35.6121 39.5938 36.7405C40.0614 37.8689 40.3014 39.0786 40.3 40.3C40.3014 41.5214 40.0614 42.7311 39.5938 43.8595C39.1262 44.9879 38.4401 46.0127 37.5751 46.8751L37.572 46.872Z" fill="#FF0000"/>
</svg>
