<svg width="62" height="62" viewBox="0 0 62 62" fill="none" xmlns="http://www.w3.org/2000/svg">
<path d="M32.1044 7.28015C31.968 7.12084 31.7987 6.99294 31.6081 6.90525C31.4176 6.81756 31.2103 6.77216 31.0006 6.77216C30.7909 6.77216 30.5836 6.81756 30.3931 6.90525C30.2025 6.99294 30.0333 7.12084 29.8968 7.28015C26.063 11.7643 13.5625 27.2667 13.5625 38.75C13.5625 49.451 20.3002 56.1875 31 56.1875C41.6998 56.1875 48.4375 49.451 48.4375 38.75C48.4375 27.2667 35.937 11.7643 32.1044 7.28015ZM32.9375 49.8906C32.7048 49.8911 32.4753 49.8357 32.2684 49.7291C32.0616 49.6224 31.8833 49.4676 31.7488 49.2778C31.6142 49.0879 31.5272 48.8684 31.4951 48.6379C31.463 48.4074 31.4867 48.1726 31.5643 47.9531C31.6634 47.6668 31.8503 47.4191 32.0983 47.2451C32.3464 47.0712 32.643 46.9799 32.946 46.9844C34.8694 46.9802 36.7129 46.2143 38.073 44.8542C39.433 43.4941 40.199 41.6507 40.2031 39.7272C40.1987 39.4243 40.2899 39.1277 40.4639 38.8796C40.6378 38.6315 40.8856 38.4446 41.1719 38.3455C41.3913 38.268 41.6262 38.2442 41.8567 38.2763C42.0872 38.3084 42.3066 38.3954 42.4965 38.53C42.6864 38.6646 42.8412 38.8428 42.9478 39.0497C43.0545 39.2565 43.1099 39.486 43.1094 39.7187C43.1065 42.4156 42.0339 45.0012 40.1269 46.9082C38.2199 48.8151 35.6344 49.8877 32.9375 49.8906Z" fill="#5096FF"/>
</svg>
