<svg width="51" height="39" viewBox="0 0 51 39" fill="none" xmlns="http://www.w3.org/2000/svg">
<g clip-path="url(#clip0_10_105)">
<path d="M35.1006 10.9779L25.9339 1.81119C25.8194 1.69737 25.6646 1.63348 25.5031 1.63348C25.3417 1.63348 25.1868 1.69737 25.0723 1.81119L15.9056 10.9779C15.8055 11.0948 15.7532 11.2451 15.7591 11.3989C15.7651 11.5527 15.8288 11.6986 15.9377 11.8075C16.0465 11.9163 16.1924 11.9801 16.3462 11.986C16.5 11.992 16.6504 11.9396 16.7673 11.8395L25.5001 3.10675L34.2328 11.8456C34.3497 11.9458 34.5001 11.9981 34.6539 11.9921C34.8077 11.9862 34.9536 11.9224 35.0625 11.8136C35.1713 11.7048 35.2351 11.5589 35.241 11.4051C35.2469 11.2513 35.1946 11.1009 35.0945 10.984L35.1006 10.9779Z" fill="#A0A4AB"/>
<path d="M31.6111 19.9673H28.5555V13.8562H22.4444V19.9673H19.3888V11.4117L18.1666 12.634V19.9673C18.1666 20.2915 18.2954 20.6023 18.5246 20.8315C18.7538 21.0608 19.0647 21.1895 19.3888 21.1895H23.6666V15.0784H27.3333V21.1895H31.6111C31.9352 21.1895 32.2461 21.0608 32.4753 20.8315C32.7045 20.6023 32.8333 20.2915 32.8333 19.9673V12.4873L31.6111 11.2651V19.9673Z" fill="#A0A4AB"/>
</g>
<path d="M18.4823 29.8357V35.4117H17.7543V32.8837H14.9143V35.4117H14.1863V29.8357H14.9143V32.2837H17.7543V29.8357H18.4823ZM21.6374 35.4837C21.2267 35.4837 20.8534 35.3904 20.5174 35.2037C20.1867 35.0171 19.9254 34.7531 19.7334 34.4117C19.5467 34.0651 19.4534 33.6651 19.4534 33.2117C19.4534 32.7637 19.5494 32.3691 19.7414 32.0277C19.9387 31.6811 20.2054 31.4171 20.5414 31.2357C20.8774 31.0491 21.2534 30.9557 21.6694 30.9557C22.0854 30.9557 22.4614 31.0491 22.7974 31.2357C23.1334 31.4171 23.3974 31.6784 23.5894 32.0197C23.7867 32.3611 23.8854 32.7584 23.8854 33.2117C23.8854 33.6651 23.784 34.0651 23.5814 34.4117C23.384 34.7531 23.1147 35.0171 22.7734 35.2037C22.432 35.3904 22.0534 35.4837 21.6374 35.4837ZM21.6374 34.8437C21.8987 34.8437 22.144 34.7824 22.3734 34.6597C22.6027 34.5371 22.7867 34.3531 22.9254 34.1077C23.0694 33.8624 23.1414 33.5637 23.1414 33.2117C23.1414 32.8597 23.072 32.5611 22.9334 32.3157C22.7947 32.0704 22.6134 31.8891 22.3894 31.7717C22.1654 31.6491 21.9227 31.5877 21.6614 31.5877C21.3947 31.5877 21.1494 31.6491 20.9254 31.7717C20.7067 31.8891 20.5307 32.0704 20.3974 32.3157C20.264 32.5611 20.1974 32.8597 20.1974 33.2117C20.1974 33.5691 20.2614 33.8704 20.3894 34.1157C20.5227 34.3611 20.6987 34.5451 20.9174 34.6677C21.136 34.7851 21.376 34.8437 21.6374 34.8437ZM30.1146 30.9477C30.4559 30.9477 30.7599 31.0197 31.0266 31.1637C31.2932 31.3024 31.5039 31.5131 31.6586 31.7957C31.8132 32.0784 31.8906 32.4224 31.8906 32.8277V35.4117H31.1706V32.9317C31.1706 32.4944 31.0612 32.1611 30.8426 31.9317C30.6292 31.6971 30.3386 31.5797 29.9706 31.5797C29.5919 31.5797 29.2906 31.7024 29.0666 31.9477C28.8426 32.1877 28.7306 32.5371 28.7306 32.9957V35.4117H28.0106V32.9317C28.0106 32.4944 27.9012 32.1611 27.6826 31.9317C27.4692 31.6971 27.1786 31.5797 26.8106 31.5797C26.4319 31.5797 26.1306 31.7024 25.9066 31.9477C25.6826 32.1877 25.5706 32.5371 25.5706 32.9957V35.4117H24.8426V31.0277H25.5706V31.6597C25.7146 31.4304 25.9066 31.2544 26.1466 31.1317C26.3919 31.0091 26.6612 30.9477 26.9546 30.9477C27.3226 30.9477 27.6479 31.0304 27.9306 31.1957C28.2132 31.3611 28.4239 31.6037 28.5626 31.9237C28.6852 31.6144 28.8879 31.3744 29.1706 31.2037C29.4532 31.0331 29.7679 30.9477 30.1146 30.9477ZM37.0848 33.0517C37.0848 33.1904 37.0768 33.3371 37.0608 33.4917H33.5568C33.5834 33.9237 33.7301 34.2624 33.9968 34.5077C34.2688 34.7477 34.5968 34.8677 34.9808 34.8677C35.2954 34.8677 35.5568 34.7957 35.7648 34.6517C35.9781 34.5024 36.1274 34.3051 36.2128 34.0597H36.9968C36.8794 34.4811 36.6448 34.8251 36.2928 35.0917C35.9408 35.3531 35.5034 35.4837 34.9808 35.4837C34.5648 35.4837 34.1914 35.3904 33.8608 35.2037C33.5354 35.0171 33.2794 34.7531 33.0928 34.4117C32.9061 34.0651 32.8128 33.6651 32.8128 33.2117C32.8128 32.7584 32.9034 32.3611 33.0848 32.0197C33.2661 31.6784 33.5194 31.4171 33.8448 31.2357C34.1754 31.0491 34.5541 30.9557 34.9808 30.9557C35.3968 30.9557 35.7648 31.0464 36.0848 31.2277C36.4048 31.4091 36.6501 31.6597 36.8208 31.9797C36.9968 32.2944 37.0848 32.6517 37.0848 33.0517ZM36.3328 32.8997C36.3328 32.6224 36.2714 32.3851 36.1488 32.1877C36.0261 31.9851 35.8581 31.8331 35.6448 31.7317C35.4368 31.6251 35.2048 31.5717 34.9488 31.5717C34.5808 31.5717 34.2661 31.6891 34.0048 31.9237C33.7488 32.1584 33.6021 32.4837 33.5648 32.8997H36.3328Z" fill="#636973"/>
<defs>
<clipPath id="clip0_10_105">
<rect width="22" height="22" fill="white" transform="translate(14.5 0.411743)"/>
</clipPath>
</defs>
</svg>
